<?xml version="1.0" encoding="UTF-8"?>
<svg xmlns="http://www.w3.org/2000/svg" version="1.1" viewBox="0 0 296.5 73.9">
  <defs>
    <style>
      .cls-1, .cls-2, .cls-3 {
        fill-rule: evenodd;
      }

      .cls-1, .cls-4 {
        fill: #fff;
      }

      .cls-2 {
        fill: #29aae1;
      }

      .cls-3 {
        fill: #07a0ba;
      }
    </style>
  </defs>
  <!-- Generator: Adobe Illustrator 28.7.1, SVG Export Plug-In . SVG Version: 1.2.0 Build 142)  -->
  <g>
    <g id="Layer_1">
      <g>
        <g>
          <path class="cls-4" d="M156.3,64.4c-1.3-.5-2.4-1.3-3.2-2.2l1.7-1.8c.8.8,1.7,1.5,2.6,1.9s2,.6,3.1.6,2.1-.2,2.7-.7c.6-.5.9-1.1.9-1.9s-.1-1.1-.4-1.5-.7-.8-1.3-1.1c-.6-.3-1.6-.8-3-1.2-2.1-.8-3.6-1.6-4.6-2.5-.9-.9-1.4-2.1-1.4-3.5s.6-2.9,1.8-3.8,2.8-1.4,4.8-1.4,2.4.2,3.5.6c1.1.4,2.1.9,2.9,1.6l-1.5,2c-.8-.6-1.5-1.1-2.3-1.3-.7-.3-1.6-.4-2.6-.4-2.4,0-3.6.9-3.6,2.8s.1,1.1.5,1.5c.3.4.8.8,1.4,1.1s1.6.7,2.8,1.2c1.5.6,2.7,1.1,3.5,1.6.9.5,1.5,1.2,1.9,1.9s.6,1.6.6,2.6c0,1.5-.6,2.8-1.8,3.6s-2.8,1.3-4.9,1.3-2.9-.3-4.2-.8h0Z"/>
          <path class="cls-4" d="M186,61.7v-5.1c0-1.1-.2-1.9-.5-2.4s-.9-.8-1.8-.8-1.6.3-2.1.9c-.5.6-.7,1.4-.7,2.4v8.1h-2.7v-8.3c0-1.1-.2-1.9-.6-2.4s-1-.8-1.8-.8-1.7.4-2.2,1.1-.7,1.7-.7,2.9v7.5h-2.8v-10c0-.6,0-1.1-.1-1.6,0-.4-.2-.9-.5-1.3l2.4-1c.4.7.7,1.5.7,2.3.4-.7.9-1.3,1.6-1.7s1.4-.6,2.2-.6c1.6,0,2.8.8,3.5,2.4,1-1.6,2.4-2.4,4.3-2.4s2.7.5,3.5,1.3c.8.9,1.2,2.1,1.2,3.6v5.6c0,1,.2,1.8.6,2.5l-2.5,1c-.6-1-.9-2.2-.9-3.5h0Z"/>
          <path class="cls-4" d="M194.5,64.3c-.9-.6-1.6-1.4-2.1-2.4s-.7-2.2-.7-3.6.2-2.7.7-3.8,1.2-1.9,2.1-2.5c.9-.6,2-.9,3.3-.9s3.1.7,4.1,2.1v-1.8h2.7v9.9c0,.7,0,1.3.2,1.7.1.5.3.9.5,1.2l-2.3.9c-.5-.6-.8-1.3-.8-2.3h0c-.5.7-1.2,1.3-1.9,1.7s-1.6.6-2.6.6-2.2-.3-3.1-.9h0ZM200.9,61.7c.7-.8,1-1.8,1-3.1v-1c0-.7-.1-1.4-.4-2.1s-.7-1.2-1.3-1.6-1.3-.6-2.1-.6c-1.2,0-2.1.4-2.7,1.3-.6.9-.9,2.1-.9,3.6s.3,2.5.9,3.4,1.5,1.2,2.7,1.2,2.2-.4,2.8-1.2h0Z"/>
          <path class="cls-4" d="M208.3,54.9c0-.6,0-1.1-.1-1.6s-.2-.9-.5-1.3l2.5-1c.1.3.3.7.4,1.1s.2.8.3,1.2c.5-.8,1-1.3,1.6-1.7s1.3-.6,2.1-.6.9,0,1.2.2.8.3,1.2.6l-1.1,2c-.5-.3-1.1-.5-1.6-.5-1,0-1.8.4-2.3,1.1s-.8,1.8-.8,3v7.4h-2.8v-10h0Z"/>
          <path class="cls-4" d="M221.2,64.2c-.6-.7-.9-1.6-.9-2.9v-7.6h-2.4l.6-2.3h1.8v-3.2l2.7-1.2v4.5h3.5l-.6,2.3h-2.9v7.7c0,.6.1,1,.3,1.2.2.2.6.4,1.1.4s1-.1,1.4-.3l.7,2.1c-.3.1-.7.2-1.2.4-.5.1-1,.2-1.4.2-1.2,0-2.1-.3-2.7-1h0Z"/>
          <path class="cls-4" d="M233,64c-1.4-.8-2.4-2-3.1-3.5-.7-1.5-1.1-3.3-1.1-5.3s.4-3.8,1.1-5.3c.7-1.5,1.7-2.7,3.1-3.5s2.9-1.2,4.7-1.2,2.3.2,3.3.6,1.9,1,2.6,1.7l-1.2,2c-.6-.7-1.3-1.1-2-1.5s-1.6-.5-2.7-.5c-1.9,0-3.3.7-4.4,2-1,1.4-1.6,3.2-1.6,5.6s.5,4.3,1.6,5.6,2.6,2,4.6,2,3.3-.6,4.4-1.9l1.7,1.6c-.7.8-1.6,1.5-2.7,1.9s-2.3.7-3.5.7c-1.9,0-3.5-.4-4.9-1.2h0Z"/>
          <path class="cls-4" d="M246.7,44.5h2.8v20.5h-2.8v-20.5Z"/>
          <path class="cls-4" d="M255.2,64.3c-1-.6-1.7-1.4-2.2-2.5-.5-1.1-.8-2.3-.8-3.6s.2-2.6.8-3.6c.5-1.1,1.3-1.9,2.2-2.5,1-.6,2.2-.9,3.5-.9s2.6.3,3.5.9c1,.6,1.8,1.4,2.3,2.5s.8,2.3.8,3.6-.3,2.6-.8,3.6c-.5,1.1-1.3,1.9-2.3,2.5-1,.6-2.2.9-3.5.9s-2.5-.3-3.5-.9h0ZM261.5,61.6c.6-.8,1-2,1-3.5s-.3-2.6-1-3.4c-.6-.8-1.6-1.3-2.8-1.3s-2.1.4-2.8,1.3c-.6.8-.9,2-.9,3.4s.3,2.6.9,3.5c.6.8,1.6,1.3,2.8,1.3s2.1-.4,2.8-1.3Z"/>
          <path class="cls-4" d="M269.3,63.7c-.9-1-1.4-2.3-1.4-4.1v-8.2h2.8v8.2c0,1.1.2,1.9.7,2.5.5.5,1.2.8,2.3.8s1.9-.4,2.4-1.1.9-1.7.9-2.8v-7.5h2.8v10c0,.6,0,1.1.1,1.6,0,.5.2.9.5,1.3l-2.5,1c-.1-.3-.3-.7-.4-1.1s-.2-.8-.3-1.2c-1,1.5-2.3,2.3-4.2,2.3s-2.8-.5-3.8-1.5h0Z"/>
          <path class="cls-4" d="M293.5,64.2c-.2-.4-.2-.8-.3-1.3-1.1,1.5-2.6,2.3-4.5,2.3s-2.3-.3-3.2-.8-1.6-1.3-2.1-2.4c-.5-1-.7-2.2-.7-3.6,0-2.2.5-4,1.6-5.3s2.6-2,4.6-2,3,.7,4,2v-8.7h2.8v16.9c0,.7,0,1.3.2,1.7.1.4.3.8.5,1.2l-2.3.9c-.2-.2-.4-.6-.6-1h0ZM292,61.7c.7-.8,1-1.8,1-3v-1c0-.7-.1-1.4-.4-2.1-.3-.7-.7-1.2-1.3-1.6-.6-.4-1.2-.6-2-.6-1.3,0-2.2.5-2.8,1.3-.6.9-.9,2.1-.9,3.6s.3,2.5.9,3.3c.6.8,1.5,1.2,2.7,1.2s2.2-.4,2.9-1.2h0Z"/>
        </g>
        <path class="cls-1" d="M117.3,63.7c-4.5-4.5-4.5-11.7,0-16.2s11.7-4.5,16.2,0,4.5,11.7,0,16.2-11.7,4.5-16.2,0"/>
        <path class="cls-3" d="M53.1,61.5c-2.1,3.4-5.9,5.7-10.3,5.8-6.7,0-12.1-5.4-12.1-12.1s5.4-12.1,12.1-12.1c9.6,0,9,8.1,14.7,8.1,4.5,0,18.3,0,22.9.2,1.9,0,3.5-.9,4.4-2.5,2.1-3.4,5.9-5.7,10.2-5.7,6.7,0,12.1,5.4,12.1,12.1s-5.4,12.1-12.1,12.1-8.1-2.3-10.2-5.7c-1-1.6-2.6-2.5-4.4-2.5-4.6,0-18.3,0-22.9-.2-1.8,0-3.4.8-4.4,2.4q-.7,1,0,0h0Z"/>
        <path class="cls-3" d="M8.5,60.6c-2.9-3-2.9-7.8,0-10.7,3-3,7.8-3,10.7,0,3,3,3,7.8,0,10.7-3,3-7.7,3-10.7,0Z"/>
        <path class="cls-2" d="M80.9,21.4c-2.1,3.4-5.9,5.7-10.3,5.8-4.3,0-8.2-2.3-10.3-5.7-1-1.5-2.6-2.4-4.4-2.4-4.6,0-9.1.1-13.7.1-.9,0-1.8.2-2.5.6-.4.6-.8,1.2-1.4,1.8-3.5,3.5-9.2,3.5-12.7,0-3.5-3.5-3.5-9.2,0-12.7,3.5-3.5,9.2-3.5,12.7,0,.5.5,1,1.1,1.4,1.8.8.4,1.6.6,2.5.6,4.5,0,9.1-.1,13.7-.1,1.8,0,3.3-.8,4.3-2.3,2.1-3.5,6-5.9,10.4-5.9s8.3,2.3,10.4,5.9c1,1.5,2.6,2.3,4.3,2.3,4.6,0,27.7.1,32.2.1,1.9,0,3.5-.9,4.4-2.5,2.1-3.4,5.9-5.7,10.2-5.7,6.7,0,12.1,5.4,12.1,12.1s-5.4,12.1-12.1,12.1-8.1-2.3-10.2-5.7c-1-1.6-2.6-2.5-4.4-2.5-4.6,0-27.7-.1-32.3-.1-1.8,0-3.4.9-4.4,2.4q-.7,1,0,0h0Z"/>
      </g>
    </g>
  </g>
</svg>